<svg id="Layer_1" version="1.1" xmlns="http://www.w3.org/2000/svg" xmlns:xlink="http://www.w3.org/1999/xlink" x="0px"
     y="0px" width="25.4px" height="24px" viewBox="0 0 25.4 24" style="enable-background:new 0 0 25.4 24;"
     xml:space="preserve"><path class="st0" d="M8.1,19.7c1.2,0,2.1,1,2.1,2.1c0,1.2-1,2.1-2.1,2.1C6.9,24,6,23,6,21.9C6,20.7,6.9,19.7,8.1,19.7z"></path>
    <path class="st0"
          d="M18.5,19.7c1.2,0,2.1,1,2.1,2.1c0,1.2-1,2.1-2.1,2.1c-1.2,0-2.1-1-2.1-2.1C16.4,20.7,17.3,19.7,18.5,19.7z"></path>
    <path class="st1"
          d="M1,1l3.5,1.6c0,0,1.1,0.4,1.2,1.3C5.8,4.5,7.2,15,7.2,15s0.1,1.5,1.4,1.5c1.3,0,10.6,0,11.7,0            c1.1,0,1.3-1.2,1.3-1.2l2.6-7.8c0,0,0.8-2-1.2-2c-2.7,0-11.2,0-11.2,0"></path></svg>
